<?xml version="1.0" standalone="no"?>
<!DOCTYPE svg PUBLIC "-//W3C//DTD SVG 20010904//EN"
 "http://www.w3.org/TR/2001/REC-SVG-20010904/DTD/svg10.dtd">
<svg version="1.0" xmlns="http://www.w3.org/2000/svg"
 width="1024.000000pt" height="1024.000000pt" viewBox="0 0 1024.000000 1024.000000"
 preserveAspectRatio="xMidYMid meet">
<metadata>
Created by potrace 1.11, written by Peter Selinger 2001-2013
</metadata>
<g transform="translate(0.000000,1024.000000) scale(0.100000,-0.100000)"
fill="#000000" stroke="none">
<path d="M5647 9084 c-4 -4 -7 -18 -7 -30 0 -28 -77 -94 -109 -94 -14 0 -25
-7 -28 -19 -3 -11 -18 -25 -33 -31 -16 -7 -31 -18 -34 -26 -3 -7 -30 -27 -60
-44 -36 -21 -56 -39 -58 -53 -2 -14 -11 -23 -25 -25 -13 -2 -31 -17 -40 -34
l-18 -30 -82 5 c-75 6 -139 25 -154 49 -3 5 -32 8 -65 6 -47 -2 -59 -7 -62
-20 -2 -12 6 -21 22 -28 19 -7 26 -17 26 -35 0 -20 7 -29 29 -36 18 -6 32 -20
35 -34 4 -14 16 -34 28 -45 31 -28 39 -151 13 -180 -14 -15 -16 -29 -11 -65 7
-44 26 -54 26 -14 0 14 9 21 30 25 22 5 33 15 42 40 8 22 19 34 30 34 10 0 18
4 18 9 0 5 19 29 43 54 23 24 61 65 84 91 23 25 47 46 53 46 5 0 10 4 10 9 0
15 92 102 118 112 12 5 22 15 22 23 0 15 21 26 50 26 11 0 20 10 24 25 4 17
17 27 44 34 20 6 42 11 48 11 7 0 19 11 27 24 9 13 28 27 43 30 38 10 54 30
54 66 0 36 -13 51 -55 65 -18 7 -31 19 -35 35 -6 25 -29 37 -43 24z"/>
<path d="M3125 9024 c-11 -3 -39 -10 -62 -16 l-43 -11 0 -73 c0 -66 2 -74 19
-74 11 0 22 9 26 19 3 12 17 21 33 23 17 2 34 14 47 35 11 18 28 32 38 33 13
0 17 8 17 35 0 32 -3 35 -27 34 -16 -1 -37 -3 -48 -5z"/>
<path d="M3783 8945 c-19 -13 -20 -19 -11 -53 13 -50 31 -92 40 -92 4 0 10
-16 14 -37 6 -32 4 -39 -20 -55 -14 -11 -26 -29 -26 -40 0 -11 -12 -29 -26
-41 -25 -19 -26 -21 -8 -34 33 -24 94 -14 94 17 0 13 14 20 59 29 49 10 60 16
65 36 6 23 52 45 97 45 47 0 28 40 -20 41 -20 0 -54 6 -75 12 -51 16 -85 71
-86 140 l0 47 -38 0 c-21 0 -47 -7 -59 -15z"/>
<path d="M6789 8715 c-3 -2 -54 -8 -114 -13 -103 -9 -110 -11 -132 -38 -13
-16 -23 -42 -23 -57 0 -20 -6 -30 -20 -34 -20 -5 -26 -23 -13 -36 3 -4 16 -1
28 7 11 8 62 20 113 27 51 7 92 16 92 21 0 4 6 8 13 8 7 0 20 9 30 20 9 11 29
20 45 20 16 0 37 9 47 20 17 19 17 21 0 40 -16 18 -55 27 -66 15z"/>
<path d="M2693 8541 c-5 -21 -22 -26 -122 -37 -35 -3 -78 -12 -94 -19 l-29
-12 43 -7 c64 -10 302 -25 311 -20 4 3 8 17 8 32 0 57 -104 113 -117 63z"/>
<path d="M2253 8433 c-7 -2 -13 -11 -13 -19 0 -10 13 -14 48 -14 52 0 78 12
68 29 -7 11 -79 14 -103 4z"/>
<path d="M3523 8420 c-3 -11 -13 -20 -22 -20 -41 -1 -96 -29 -104 -54 -7 -20
-15 -26 -38 -26 -25 0 -30 -5 -35 -29 -5 -26 -11 -29 -55 -35 -28 -4 -57 -2
-68 4 -11 5 -28 10 -38 10 -10 0 -24 9 -31 20 -16 26 -52 27 -52 0 0 -12 9
-22 24 -26 20 -5 25 -14 30 -57 8 -58 21 -87 40 -87 29 0 29 -176 -1 -193 -7
-4 -13 -16 -13 -25 0 -10 -4 -22 -9 -28 -14 -15 -21 -110 -8 -123 6 -6 14 -11
18 -11 18 0 39 34 39 63 0 36 6 47 35 63 11 6 21 20 23 30 5 30 25 67 49 91
13 12 23 33 23 47 0 13 7 31 15 40 8 8 15 22 15 30 0 9 7 16 15 16 10 0 17 14
21 40 5 30 11 40 25 40 12 0 21 10 25 25 3 14 16 33 28 43 30 25 46 57 46 91
0 21 6 32 20 36 24 8 27 45 4 45 -9 0 -18 -9 -21 -20z"/>
<path d="M2115 8368 c-11 -6 -27 -20 -36 -30 -11 -12 -30 -18 -56 -18 -51 0
-103 -18 -103 -35 0 -23 -119 -36 -195 -21 -26 4 -55 2 -80 -6 -39 -13 -40
-14 -45 -68 l-5 -55 -62 -9 c-52 -7 -63 -12 -63 -27 0 -11 11 -29 25 -41 14
-12 25 -26 25 -32 0 -5 14 -21 31 -35 36 -31 55 -111 26 -111 -21 0 -33 -24
-42 -83 -5 -31 -14 -53 -28 -62 -17 -12 -23 -29 -28 -83 -7 -78 -3 -92 21 -92
14 0 20 11 25 48 7 55 13 66 38 75 19 7 37 46 37 82 0 16 9 28 28 37 16 8 28
23 30 38 2 14 15 34 29 45 14 12 35 41 47 65 14 31 28 46 44 48 17 3 22 10 22
33 0 21 5 29 18 29 23 0 42 19 42 42 0 13 8 18 25 18 19 0 28 8 39 34 9 21 23
36 38 39 14 4 30 18 36 32 6 14 18 25 26 25 7 0 19 7 26 15 7 8 21 15 32 15
15 0 18 5 13 20 -5 17 -2 20 21 20 16 0 48 7 71 16 35 13 41 20 32 30 -14 17
-76 18 -104 2z"/>
<path d="M2970 8356 c0 -2 16 -6 35 -8 19 -2 35 0 35 4 0 4 -16 8 -35 8 -19 0
-35 -2 -35 -4z"/>
<path d="M1332 8178 c-37 -23 -31 -42 18 -52 38 -7 60 1 60 24 0 53 -24 62
-78 28z"/>
<path d="M7570 7768 c-8 -10 -46 -31 -85 -45 -66 -25 -81 -27 -248 -27 -152
-1 -180 1 -190 15 -16 22 -39 28 -59 17 -16 -7 -18 -24 -18 -124 0 -93 3 -116
15 -120 20 -8 74 14 105 42 14 13 44 26 67 30 25 4 53 17 67 31 21 21 37 25
114 30 95 6 242 -11 277 -32 31 -19 98 -24 126 -10 l24 13 -28 11 c-16 6 -35
11 -43 11 -9 0 -14 11 -14 33 0 21 -7 36 -20 45 -11 7 -20 18 -20 25 -1 6 -13
26 -28 43 -26 31 -27 31 -42 12z"/>
<path d="M3090 7705 c-15 -38 -12 -72 5 -79 18 -7 23 4 27 58 4 47 -17 60 -32
21z"/>
<path d="M2240 7544 c0 -74 5 -144 10 -155 12 -21 30 -26 30 -7 0 28 43 98 60
98 19 0 30 19 30 50 0 11 11 22 29 28 22 8 29 18 34 48 13 78 18 74 -93 74
l-100 0 0 -136z"/>
<path d="M893 7613 c-8 -6 -11 -62 -10 -196 1 -131 -1 -190 -9 -195 -17 -10
-36 -82 -32 -116 5 -48 26 -43 40 9 9 33 20 50 36 56 23 9 42 45 42 82 0 14
11 28 30 39 17 9 30 25 30 35 0 29 25 92 42 106 19 15 30 79 21 129 -4 28 -11
39 -27 43 -49 10 -152 15 -163 8z"/>
<path d="M2197 7302 c-5 -49 0 -73 13 -53 10 17 11 89 1 95 -5 3 -11 -16 -14
-42z"/>
<path d="M550 7231 c-17 -5 -27 -16 -30 -36 -3 -19 -12 -31 -25 -34 -30 -5
-32 -14 -40 -133 -7 -101 -9 -110 -30 -118 -36 -14 -46 -140 -11 -140 17 0 36
21 36 39 0 9 12 27 26 41 30 28 44 60 44 99 0 15 9 36 19 45 10 10 24 36 30
60 6 23 20 51 31 61 11 10 20 24 20 32 0 7 5 13 11 13 6 0 9 16 7 38 -3 33 -6
37 -33 39 -16 1 -41 -2 -55 -6z"/>
<path d="M2127 7164 c-4 -4 -7 -20 -7 -34 0 -51 -12 -88 -30 -93 -21 -5 -33
-58 -49 -207 -7 -61 -16 -99 -25 -105 -17 -13 -22 -39 -41 -224 -11 -108 -19
-149 -32 -163 -14 -16 -19 -46 -24 -146 -3 -83 -9 -127 -17 -130 -7 -2 -12
-12 -12 -23 0 -11 -7 -22 -15 -25 -8 -4 -15 -17 -15 -29 0 -13 -4 -27 -10 -30
-5 -3 -10 -17 -10 -31 0 -17 -6 -24 -19 -24 -10 0 -21 -7 -25 -15 -3 -8 -16
-15 -29 -15 -20 0 -25 -6 -31 -37 -3 -21 -6 -55 -6 -75 0 -37 -1 -38 -35 -38
-28 0 -35 4 -35 20 0 30 -28 25 -61 -11 -29 -31 -31 -32 -99 -26 -57 5 -70 3
-70 -8 0 -8 -8 -14 -17 -13 -38 3 -53 -3 -53 -20 0 -16 -11 -19 -87 -21 -136
-4 -154 -7 -164 -22 -8 -12 -11 -12 -20 1 -8 11 -12 12 -16 3 -7 -18 -33 -16
-33 2 0 8 -4 15 -10 15 -5 0 -10 -7 -10 -15 0 -8 -4 -15 -10 -15 -5 0 -10 9
-10 20 0 11 -4 20 -10 20 -5 0 -10 7 -10 15 0 8 -9 15 -20 15 -13 0 -20 7 -20
20 0 11 -4 20 -10 20 -5 0 -10 6 -10 14 0 8 -9 18 -20 21 -11 3 -20 11 -20 16
0 5 -7 9 -15 9 -8 0 -15 7 -15 16 0 11 -5 14 -16 10 -17 -7 -64 35 -64 58 0 8
-4 18 -10 21 -5 3 -10 15 -10 26 0 10 -7 19 -15 19 -8 0 -15 5 -15 10 0 6 7
10 15 10 8 0 15 5 15 10 0 6 -7 10 -15 10 -9 0 -15 9 -15 25 0 15 6 25 14 25
8 0 17 14 21 30 l7 30 128 0 c109 0 130 3 138 16 13 23 81 45 103 34 9 -5 19
-20 23 -33 3 -13 17 -36 30 -50 14 -15 28 -42 31 -61 6 -27 12 -35 36 -40 16
-3 29 -12 29 -20 0 -7 7 -19 16 -26 12 -11 18 -10 32 4 24 23 24 156 0 180
-23 23 -31 108 -43 466 -7 203 -14 250 -34 250 -10 0 -41 -84 -41 -112 0 -10
-11 -23 -24 -29 -20 -10 -25 -21 -31 -73 -8 -66 -26 -110 -48 -119 -8 -3 -17
-19 -20 -36 -5 -23 -12 -31 -27 -31 -14 0 -24 -10 -31 -29 -7 -19 -21 -33 -40
-40 -19 -7 -29 -17 -29 -30 0 -14 -6 -21 -20 -21 -11 0 -29 -9 -39 -19 -11
-11 -28 -24 -38 -29 -27 -14 -133 -7 -144 9 -8 12 -11 12 -19 -1 -9 -13 -11
-13 -20 0 -9 13 -11 13 -20 0 -9 -13 -11 -13 -20 0 -7 10 -12 12 -17 4 -23
-32 -115 -54 -157 -38 -17 7 -22 34 -6 34 5 0 7 13 4 29 -9 46 14 163 37 184
10 10 19 29 19 42 0 18 6 24 28 27 21 2 28 9 30 32 3 21 11 31 33 39 23 9 29
18 29 40 0 36 26 87 45 87 9 0 15 9 15 21 0 42 23 97 41 102 14 4 19 14 19 37
0 19 8 40 18 49 44 40 67 104 40 114 -24 8 -48 -5 -48 -27 0 -28 -11 -43 -35
-47 -11 -3 -21 -13 -23 -24 -3 -19 -18 -36 -102 -124 -19 -20 -40 -48 -47 -63
-7 -16 -23 -29 -42 -33 -18 -4 -41 -21 -58 -43 -59 -78 -73 -86 -159 -91 -24
-1 -36 -46 -53 -201 -8 -78 -14 -98 -31 -109 -16 -11 -20 -24 -20 -68 0 -59
-19 -116 -44 -130 -12 -7 -20 -35 -28 -106 -7 -65 -15 -97 -23 -97 -7 0 -16
-12 -20 -27 -10 -36 -19 -924 -10 -981 4 -24 15 -52 25 -62 11 -11 21 -41 25
-72 6 -47 10 -56 34 -65 20 -7 30 -19 34 -42 5 -21 12 -31 25 -31 10 0 24 -11
30 -25 8 -16 23 -28 42 -31 25 -5 30 -11 30 -35 0 -23 5 -28 27 -31 26 -3 28
-7 40 -77 7 -42 20 -83 31 -95 10 -12 24 -43 31 -71 13 -54 26 -75 47 -75 7 0
16 -15 20 -34 4 -25 12 -36 28 -38 12 -2 22 -11 24 -24 2 -12 16 -27 35 -35
19 -9 34 -24 37 -39 4 -18 13 -26 32 -28 18 -2 28 -10 30 -24 2 -14 13 -24 31
-29 15 -4 43 -21 63 -38 24 -22 45 -31 69 -31 21 0 39 -7 47 -17 19 -25 45
-38 108 -53 30 -7 63 -21 72 -30 13 -14 42 -19 127 -25 108 -7 177 -22 190
-42 6 -9 28 -17 93 -30 17 -3 28 -12 30 -26 2 -14 14 -24 36 -31 26 -7 32 -14
32 -37 0 -26 4 -29 30 -29 23 0 33 -6 40 -25 5 -14 16 -25 25 -25 8 0 23 -4
33 -9 9 -6 38 -13 64 -16 31 -4 51 -12 58 -24 7 -13 26 -20 72 -24 37 -3 64
-11 67 -18 2 -7 14 -22 27 -34 13 -12 24 -30 24 -39 0 -20 36 -94 55 -113 7
-7 16 -39 20 -72 5 -42 14 -69 31 -88 13 -15 24 -36 24 -46 0 -24 36 -94 54
-104 8 -4 16 -21 18 -38 2 -22 9 -31 28 -35 14 -3 26 -14 28 -25 2 -11 16 -33
31 -50 15 -16 33 -43 41 -58 8 -16 23 -33 35 -39 11 -6 34 -25 50 -42 17 -17
42 -36 57 -43 15 -7 34 -24 44 -38 10 -15 26 -25 40 -25 17 0 27 -8 34 -25 5
-14 15 -25 22 -25 39 0 90 -23 100 -45 9 -20 21 -25 69 -31 48 -5 59 -10 59
-25 0 -18 15 -23 170 -49 35 -7 78 -19 95 -28 44 -25 379 -25 416 -1 26 17
137 34 296 44 112 7 153 -6 177 -58 19 -38 61 -73 100 -83 17 -4 26 -13 26
-25 0 -14 9 -21 31 -26 20 -4 34 -14 40 -30 10 -26 45 -43 90 -43 19 0 29 -5
29 -15 0 -20 25 -31 100 -45 59 -11 105 -26 152 -51 10 -5 119 -9 243 -9 253
0 219 10 305 -91 25 -29 57 -66 73 -82 15 -17 27 -38 27 -48 0 -11 12 -22 35
-29 24 -8 35 -18 35 -31 0 -12 11 -24 28 -32 15 -6 42 -27 60 -44 18 -18 43
-35 57 -39 13 -3 27 -15 30 -25 4 -11 19 -22 34 -25 18 -4 31 -15 38 -33 7
-19 19 -30 40 -34 17 -3 43 -17 59 -30 16 -13 40 -27 54 -31 42 -13 87 -35
100 -51 7 -8 29 -15 49 -15 52 0 80 -10 86 -30 3 -11 25 -22 63 -31 31 -7 64
-22 72 -32 16 -19 75 -36 128 -37 19 0 48 -7 65 -16 18 -9 40 -21 51 -26 10
-5 80 -14 155 -20 108 -8 142 -14 164 -29 24 -18 51 -21 215 -26 188 -6 255 1
284 30 7 7 55 19 107 25 72 10 98 17 108 32 8 12 36 22 83 31 49 8 76 19 91
36 13 12 29 23 37 23 8 0 27 14 43 31 22 24 41 33 75 37 26 3 48 11 51 19 7
17 57 44 98 53 21 4 31 12 33 28 2 15 10 22 26 22 15 0 46 25 94 76 40 42 77
84 82 94 6 10 19 22 30 25 11 3 20 15 20 25 0 12 13 26 30 35 20 10 33 26 37
45 4 20 12 30 24 30 13 0 20 10 25 36 4 21 20 50 40 70 19 18 34 44 34 56 0
14 9 27 21 33 13 6 31 33 43 62 13 34 27 53 38 53 9 0 21 13 27 30 7 20 21 34
41 41 22 8 30 17 30 35 0 14 6 24 15 24 20 0 31 25 40 87 4 29 13 57 21 64 8
6 14 17 14 24 0 7 7 15 15 18 11 5 15 29 17 99 3 84 5 93 23 96 11 2 29 12 40
21 15 13 60 23 165 35 132 15 147 19 163 41 13 17 28 25 50 25 47 0 77 10 77
26 0 8 16 24 35 36 19 13 35 29 35 36 0 7 10 16 21 21 12 4 27 22 33 42 7 23
18 35 32 37 15 2 24 12 28 32 4 21 13 31 31 36 15 4 28 16 31 29 4 15 15 25
34 29 23 4 31 13 38 38 6 23 15 34 30 36 14 2 22 10 22 22 0 29 33 89 53 96
11 3 17 16 17 35 0 34 24 85 42 91 7 3 17 31 23 64 8 45 15 61 32 69 17 7 23
21 28 66 5 45 11 59 29 67 22 10 46 67 46 111 0 14 6 21 20 21 20 0 40 49 40
98 0 13 6 22 16 22 21 0 44 60 44 115 0 36 5 51 24 68 29 27 35 72 41 272 4
157 9 185 35 185 15 0 19 14 25 115 4 63 4 156 0 208 -7 92 -7 94 19 122 15
16 30 40 34 54 14 50 8 600 -7 684 -8 42 -18 77 -21 77 -18 0 -30 -91 -30
-219 l0 -141 -60 0 c-59 0 -60 0 -60 -29 0 -27 -3 -29 -52 -34 -47 -6 -82 -27
-58 -35 14 -5 12 -29 -2 -35 -7 -3 0 -6 15 -6 23 -1 28 -5 25 -23 -2 -14 -12
-24 -28 -28 -18 -4 -26 -14 -30 -35 -4 -22 -12 -31 -28 -33 -16 -2 -27 -14
-34 -33 -10 -29 -12 -30 -66 -27 -51 3 -57 5 -62 28 -4 15 -14 26 -27 28 -18
3 -22 11 -25 54 -3 57 -1 63 29 72 11 4 24 17 27 30 4 18 17 25 59 36 49 11
53 15 49 36 -2 13 -11 24 -18 24 -8 0 -14 9 -14 21 0 34 -19 59 -45 59 -18 0
-25 7 -30 30 -4 20 -14 32 -29 36 -14 3 -29 21 -42 50 -10 24 -27 47 -36 50
-10 3 -21 16 -24 29 -3 13 -17 31 -30 39 -13 9 -28 33 -34 55 -6 22 -24 53
-40 70 -17 16 -30 38 -30 49 0 13 -10 24 -30 31 -27 9 -30 14 -30 50 0 24 -6
45 -16 53 -42 35 -54 50 -54 68 0 15 -7 20 -25 20 -21 0 -25 5 -25 28 0 29
-18 59 -57 95 -13 11 -23 32 -23 45 0 14 -7 30 -16 37 -9 6 -18 32 -21 57 -5
40 -2 48 16 57 12 7 21 22 21 35 0 28 62 81 107 90 17 4 37 14 44 22 6 8 18
14 25 14 14 0 34 57 27 76 -2 7 -18 14 -34 18 -22 4 -33 14 -40 35 -7 18 -19
31 -32 33 -13 2 -23 13 -27 28 -4 16 -14 26 -27 28 -18 3 -24 -4 -32 -35 -6
-21 -11 -46 -11 -55 0 -10 -8 -22 -19 -27 -10 -6 -21 -24 -25 -41 -3 -16 -9
-44 -12 -60 -4 -20 -14 -32 -30 -36 -14 -4 -25 -16 -29 -32 -3 -16 -18 -34
-35 -44 -17 -9 -30 -24 -30 -33 0 -10 -10 -15 -30 -15 -18 0 -33 -7 -39 -18
-9 -17 -60 -35 -132 -47 -19 -4 -41 -10 -49 -15 -20 -12 -4 -40 25 -40 14 0
30 -9 37 -20 7 -11 18 -20 25 -20 7 0 16 -7 21 -16 6 -10 29 -17 70 -21 49 -5
63 -10 68 -25 3 -11 18 -21 36 -25 16 -3 46 -21 65 -39 20 -19 41 -34 47 -34
18 0 36 -22 36 -42 0 -10 11 -24 25 -30 13 -6 27 -19 30 -30 4 -10 11 -18 16
-18 5 0 9 -13 9 -30 0 -16 4 -30 8 -30 41 0 64 -114 83 -422 6 -90 13 -193 16
-230 3 -45 1 -68 -6 -68 -6 0 -11 -9 -11 -19 0 -35 -41 -115 -73 -142 l-31
-26 -230 2 c-335 3 -315 1 -328 30 -6 14 -20 25 -31 25 -45 0 -96 23 -99 44
-2 16 -11 22 -35 24 -18 2 -33 7 -33 11 0 15 -37 51 -53 51 -9 0 -17 10 -19
22 -2 12 -16 29 -33 38 -18 10 -32 28 -37 48 -6 22 -15 32 -28 32 -14 0 -20 7
-20 24 0 14 -7 31 -15 40 -8 8 -15 24 -15 35 0 12 -6 21 -15 21 -8 0 -15 6
-15 13 -3 96 -22 283 -29 290 -5 5 -33 12 -60 15 -50 4 -51 4 -51 -22 0 -19
-7 -29 -25 -36 -14 -5 -28 -18 -31 -27 -3 -10 -10 -26 -15 -35 -5 -10 -9 -27
-9 -38 0 -10 -9 -24 -19 -30 -14 -7 -22 -26 -27 -67 -4 -32 -13 -63 -20 -71
-8 -7 -14 -19 -14 -26 0 -8 -6 -19 -14 -25 -8 -7 -18 -36 -21 -66 -6 -42 -12
-55 -30 -63 -14 -6 -26 -23 -30 -41 -4 -18 -13 -31 -22 -31 -19 0 -43 -24 -43
-44 0 -9 -6 -16 -14 -16 -7 0 -26 -16 -40 -35 -15 -19 -35 -35 -45 -35 -10 0
-31 -11 -47 -25 -16 -14 -43 -28 -61 -31 -18 -3 -37 -12 -44 -20 -6 -8 -20
-14 -29 -14 -10 0 -20 -5 -22 -11 -5 -15 -85 -28 -180 -28 -56 -1 -81 -5 -93
-17 -13 -13 -35 -15 -133 -12 -65 2 -123 7 -129 11 -15 10 -139 27 -195 27
-33 0 -50 5 -56 17 -7 11 -27 18 -66 21 -31 2 -59 8 -62 13 -3 5 -69 9 -147 9
-106 0 -149 -4 -171 -15 -15 -8 -34 -15 -41 -15 -8 0 -17 -9 -20 -20 -3 -11
-13 -20 -21 -20 -8 0 -14 -6 -14 -13 0 -8 -9 -22 -19 -31 -11 -10 -23 -31 -26
-47 -4 -19 -13 -29 -25 -29 -11 0 -19 -10 -23 -28 -4 -22 -14 -31 -39 -38 -23
-7 -34 -17 -36 -32 -2 -12 -10 -22 -20 -22 -26 0 -102 -41 -102 -55 0 -13 -42
-25 -87 -25 -13 0 -26 -7 -30 -17 -10 -28 -19 -31 -132 -37 -113 -7 -257 11
-271 33 -4 7 -29 18 -56 25 -37 9 -52 19 -62 39 -10 20 -21 27 -42 27 -57 0
-77 -15 -84 -63 -9 -58 -42 -127 -61 -127 -8 0 -15 -9 -15 -20 0 -13 -14 -25
-46 -40 -26 -11 -52 -20 -60 -20 -7 0 -15 -9 -19 -19 -5 -16 -20 -20 -95 -26
-50 -4 -93 -11 -96 -16 -3 -5 -16 -9 -29 -9 -13 0 -30 -6 -37 -13 -15 -15
-142 -37 -213 -37 -25 0 -45 -4 -45 -10 0 -5 -8 -10 -18 -10 -10 0 -22 -4 -27
-9 -13 -11 -175 -31 -251 -30 -99 1 -139 11 -142 37 -3 17 -10 22 -31 22 -15
0 -36 8 -47 18 -25 21 -74 51 -95 58 -9 3 -22 17 -28 30 -6 13 -16 24 -23 24
-7 0 -25 11 -40 25 -15 13 -44 27 -65 31 -36 6 -39 4 -50 -28 -7 -18 -15 -59
-19 -92 -5 -44 -11 -60 -25 -63 -9 -3 -19 -12 -22 -22 -2 -10 -24 -22 -57 -30
-30 -8 -62 -22 -73 -31 -22 -21 -61 -30 -131 -30 -44 0 -53 3 -61 22 -8 19
-24 25 -97 37 -68 12 -88 18 -91 33 -3 11 -18 21 -37 25 -20 3 -35 13 -37 25
-3 11 -14 18 -28 18 -13 0 -25 7 -29 15 -3 8 -16 15 -28 15 -18 0 -26 9 -36
40 -15 50 -16 125 0 153 14 26 34 47 45 47 5 0 16 8 24 18 35 39 122 114 144
124 12 5 28 21 34 34 7 15 19 24 33 24 14 0 27 9 33 22 6 13 32 29 69 43 32
12 62 29 67 37 5 9 29 19 54 22 24 4 51 13 58 20 25 25 72 44 132 51 33 4 67
13 76 21 48 43 413 43 444 0 6 -8 44 -19 85 -25 64 -10 79 -16 100 -41 14 -17
33 -30 42 -30 18 0 23 -12 33 -77 6 -37 10 -43 31 -43 19 0 24 5 24 24 0 12
11 38 25 57 25 35 39 61 49 91 2 9 18 19 35 23 22 5 31 12 31 26 0 13 10 24
29 30 15 5 34 21 41 34 8 14 25 26 47 30 19 3 45 19 60 36 14 16 35 29 45 29
23 0 98 37 98 49 0 4 25 11 56 14 31 3 64 13 73 21 10 9 23 16 30 16 7 0 19 6
27 14 8 8 35 18 59 22 25 3 51 14 58 23 6 10 39 25 72 34 33 9 62 22 63 27 6
16 70 40 107 40 18 0 44 10 59 21 15 12 55 30 88 40 34 11 66 26 72 35 8 10
40 19 96 26 47 5 90 15 95 21 16 19 73 38 157 52 43 7 84 20 93 28 15 16 81
19 618 33 253 6 331 -2 342 -37 7 -20 94 -34 149 -24 l36 7 0 73 c0 104 18
228 36 241 8 6 14 14 14 19 0 4 9 18 20 32 11 14 20 34 20 45 0 11 11 22 25
28 15 6 25 17 25 29 0 12 12 27 29 36 17 8 31 25 33 37 2 15 11 24 25 26 15 2
25 13 29 30 4 15 14 34 23 43 31 31 47 54 60 87 8 19 21 32 31 32 20 0 35 39
20 54 -5 5 -20 6 -34 2 -19 -5 -26 -13 -26 -31 0 -21 -5 -25 -31 -25 -21 0
-32 -6 -36 -17 -2 -10 -29 -29 -59 -43 -29 -14 -56 -33 -60 -43 -3 -10 -18
-20 -34 -23 -19 -4 -30 -14 -34 -30 -5 -17 -16 -26 -36 -30 -16 -4 -36 -17
-45 -30 -8 -13 -24 -24 -35 -24 -10 0 -22 -4 -25 -10 -3 -5 -13 -10 -22 -10
-8 0 -24 -11 -34 -24 -13 -17 -34 -27 -65 -32 -25 -3 -54 -15 -64 -26 -16 -18
-39 -22 -177 -30 -182 -11 -485 -36 -525 -43 -71 -13 -100 -16 -203 -22 -124
-6 -301 12 -308 32 -3 7 -18 15 -34 18 -15 3 -45 22 -66 41 -20 20 -43 36 -51
36 -7 0 -16 8 -19 18 -15 45 -34 89 -50 114 -11 16 -21 56 -26 102 -8 91 -28
120 -75 110 -17 -3 -38 -12 -46 -19 -8 -7 -30 -16 -47 -20 -28 -5 -33 -11 -33
-34 0 -15 -4 -31 -10 -37 -6 -6 -6 -22 2 -44 6 -19 13 -41 14 -48 2 -7 17 -18
34 -23 19 -7 30 -18 30 -30 0 -12 10 -23 25 -29 16 -6 27 -20 31 -38 3 -15 15
-32 27 -37 17 -8 23 -20 25 -54 6 -79 -17 -121 -64 -121 -15 0 -38 -13 -56
-30 -16 -16 -35 -30 -43 -30 -7 0 -15 -7 -19 -15 -3 -8 -14 -15 -25 -15 -26 0
-74 -21 -84 -37 -4 -7 -22 -13 -40 -13 -42 0 -107 -18 -107 -30 0 -6 -8 -10
-18 -10 -10 0 -26 -6 -37 -14 -11 -7 -52 -16 -91 -19 -39 -4 -93 -16 -119 -28
-40 -18 -60 -20 -129 -16 -44 3 -94 8 -111 11 -16 3 -46 7 -66 10 -20 2 -45 9
-55 14 -11 6 -45 13 -77 17 -36 5 -61 13 -64 22 -5 13 -81 53 -101 53 -5 0
-15 11 -22 25 -7 14 -22 25 -32 25 -10 0 -29 11 -42 24 -13 12 -41 30 -62 38
-28 11 -40 23 -42 39 -2 13 -8 28 -13 34 -5 5 -9 19 -9 31 0 12 -7 27 -15 34
-8 7 -15 23 -15 36 0 12 -4 26 -10 29 -5 3 -10 43 -10 88 0 98 -17 221 -30
225 -6 2 -10 11 -10 20 0 10 -7 35 -14 57 -8 22 -17 98 -21 168 -6 96 -11 130
-22 134 -8 3 -16 3 -19 1 -2 -3 -11 -86 -19 -184 -16 -197 -20 -218 -47 -253
-11 -15 -18 -40 -18 -67 0 -42 -5 -51 -43 -77 -13 -9 -19 -31 -24 -84 -5 -63
-3 -76 18 -110 12 -21 29 -42 36 -46 7 -4 13 -22 13 -40 0 -21 7 -36 19 -44
22 -14 32 -63 33 -158 0 -59 -3 -70 -24 -89 -13 -11 -27 -28 -30 -37 -7 -18
-78 -39 -132 -39 -19 0 -37 -6 -40 -12 -5 -10 -7 -10 -12 0 -8 16 -24 15 -24
-2 0 -13 -34 -18 -199 -33 -30 -2 -63 -9 -73 -14 -10 -6 -23 -7 -29 -3 -6 4
-14 3 -18 -2 -3 -5 -23 -17 -44 -26 -32 -15 -68 -18 -223 -18 l-186 0 -27 29
c-15 16 -36 30 -46 32 -11 3 -26 17 -33 32 -7 15 -24 30 -37 33 -18 4 -26 15
-31 40 -4 24 -12 34 -24 34 -10 0 -23 12 -29 28 -21 49 -42 83 -57 89 -8 3
-14 19 -14 39 0 18 -6 37 -12 41 -17 11 -41 58 -58 113 -8 25 -22 50 -31 57
-24 18 -31 204 -23 589 6 256 10 324 20 324 16 0 23 41 27 155 2 74 -1 90 -13
93 -9 1 -19 0 -23 -4z m-1637 -1034 c0 -5 -4 -10 -10 -10 -5 0 -10 5 -10 10 0
6 5 10 10 10 6 0 10 -4 10 -10z m7599 -1359 c26 -15 58 -32 72 -36 13 -4 35
-18 48 -31 13 -13 28 -24 33 -24 10 0 55 -45 123 -124 28 -32 73 -83 102 -114
29 -32 53 -63 53 -71 0 -8 7 -19 16 -25 19 -14 36 -88 28 -121 -4 -16 -13 -25
-25 -25 -12 0 -19 -7 -19 -18 0 -11 -8 -19 -17 -20 -35 -2 -63 9 -63 23 0 9
-10 15 -25 15 -14 0 -25 5 -25 10 0 6 -9 10 -20 10 -10 0 -53 5 -94 11 -57 9
-75 15 -79 29 -3 14 -19 19 -67 25 -49 6 -64 11 -67 26 -4 13 -14 19 -34 19
-16 0 -29 5 -29 11 0 9 -30 10 -111 5 -137 -9 -209 5 -209 40 0 14 -8 25 -20
29 -17 5 -20 15 -20 60 0 45 3 55 20 60 14 5 20 15 20 37 0 21 6 31 19 35 10
2 25 20 34 39 12 25 23 34 41 34 17 0 26 7 30 23 4 18 17 26 58 36 29 8 62 21
73 31 19 17 45 25 89 29 10 0 40 -12 65 -28z m931 2 c0 -9 5 -31 12 -49 10
-28 9 -36 -5 -52 -9 -10 -17 -33 -17 -50 0 -22 -5 -32 -15 -32 -11 0 -15 -11
-15 -41 0 -46 -18 -69 -53 -69 -18 0 -28 8 -37 30 -7 17 -19 30 -26 30 -8 0
-14 8 -14 19 0 10 -3 39 -6 64 -6 40 -4 46 15 52 11 3 21 14 21 23 0 21 34 52
56 52 9 0 18 9 21 20 7 26 63 29 63 3z m-2497 -239 c48 -9 87 -20 87 -25 0 -5
7 -9 15 -9 8 0 15 -4 15 -10 0 -5 8 -10 18 -10 27 0 62 -29 62 -51 0 -12 7
-19 18 -19 10 0 23 -5 30 -12 17 -17 15 -48 -4 -48 -20 0 -44 -24 -44 -44 0
-13 -13 -16 -72 -17 -40 0 -151 -4 -247 -8 -144 -7 -181 -6 -217 6 -36 12 -44
19 -44 39 0 13 -4 24 -10 24 -5 0 -10 11 -10 25 0 14 4 25 8 25 5 0 14 18 21
40 9 32 16 40 36 40 32 0 76 17 89 35 9 13 77 28 146 34 8 0 54 -6 103 -15z
m-1293 -283 c0 -9 64 -22 203 -42 48 -7 87 -16 87 -21 0 -4 7 -8 15 -8 8 0 15
-4 15 -10 0 -5 -7 -10 -15 -10 -8 0 -15 -4 -15 -10 0 -5 7 -10 15 -10 27 0 16
-18 -15 -25 -24 -5 -269 -15 -430 -18 -66 -1 -120 6 -120 16 0 5 21 30 48 56
41 40 56 48 115 60 37 7 67 17 67 22 0 5 7 9 15 9 8 0 15 -4 15 -9z"/>
<path d="M350 6744 c0 -8 5 -12 10 -9 6 3 10 10 10 16 0 5 -4 9 -10 9 -5 0
-10 -7 -10 -16z"/>
<path d="M8237 6635 c-20 -14 -37 -30 -37 -35 0 -4 -19 -27 -41 -49 -34 -33
-40 -45 -35 -66 5 -18 13 -25 30 -25 15 0 32 -11 44 -27 18 -25 25 -27 93 -27
61 -1 74 2 77 16 2 9 -6 25 -18 36 -17 16 -23 36 -27 98 -8 111 -21 123 -86
79z"/>
<path d="M4603 6584 c-3 -10 -19 -29 -35 -45 -23 -21 -29 -35 -26 -61 2 -28 7
-34 31 -36 15 -2 27 1 27 7 0 6 11 11 24 11 47 0 56 9 56 60 0 27 -3 55 -6 64
-8 22 -63 21 -71 0z"/>
<path d="M7559 6583 c0 -5 -2 -16 -4 -25 -2 -14 3 -18 25 -18 28 0 41 14 33
38 -5 13 -52 17 -54 5z"/>
<path d="M7473 6506 c-36 -17 -27 -27 19 -24 31 2 44 8 46 21 4 20 -29 22 -65
3z"/>
<path d="M4518 6433 c7 -3 16 -2 19 1 4 3 -2 6 -13 5 -11 0 -14 -3 -6 -6z"/>
<path d="M9820 6211 c0 -23 5 -41 10 -41 6 0 10 15 10 34 0 19 -4 38 -10 41
-6 4 -10 -10 -10 -34z"/>
</g>
</svg>
